<?xml version="1.0" encoding="UTF-8"?>
<svg id="Camada_1" data-name="Camada 1" xmlns="http://www.w3.org/2000/svg" viewBox="0 0 20 20">
  <path d="M10,4.35c-3.11,0-5.65,2.53-5.65,5.65s2.53,5.65,5.65,5.65,5.65-2.53,5.65-5.65-2.53-5.65-5.65-5.65ZM10,14.32c-2.38,0-4.32-1.94-4.32-4.32s1.94-4.32,4.32-4.32,4.32,1.94,4.32,4.32-1.94,4.32-4.32,4.32ZM15.65.36H4.35C2.34.36.7,2,.7,4.02v11.96c0,2.02,1.64,3.65,3.65,3.65h11.3c2.02,0,3.65-1.64,3.65-3.65V4.02c0-2.02-1.64-3.66-3.65-3.66h0ZM17.98,15.98c0,1.28-1.04,2.33-2.33,2.33H4.35c-1.28,0-2.33-1.04-2.33-2.33V4.02c0-1.28,1.04-2.33,2.33-2.33h11.3c1.28,0,2.33,1.04,2.33,2.33v11.96ZM16.35,3.32c.19.19.29.44.29.7s-.11.52-.29.7c-.19.19-.44.29-.7.29-.07,0-.13,0-.2-.02s-.13-.03-.19-.06c-.06-.03-.12-.06-.17-.09-.05-.04-.11-.08-.15-.12-.19-.19-.29-.44-.29-.7,0-.07,0-.13.02-.2,0-.06.03-.13.06-.19.02-.06.05-.12.09-.17.04-.05.08-.11.13-.15.37-.37,1.04-.37,1.41,0h0Z"/>
</svg>