<?xml version="1.0" encoding="UTF-8"?>
<svg id="Camada_1" data-name="Camada 1" xmlns="http://www.w3.org/2000/svg" viewBox="0 0 20 20">
  <path d="M17.41,2.48c-.11-.07-.22-.07-.33-.04-.91.4-1.86.11-2.4-.62-.25-.33-.4-.76-.4-1.17,0-.11-.04-.18-.11-.25s-.15-.11-.25-.11h-3.71c-.22,0-.36.15-.36.36v13c-.07.66-.58,1.13-1.24,1.13-.69,0-1.27-.58-1.27-1.27,0-.66.47-1.17,1.13-1.24.18-.04.33-.18.33-.36v-4.22c0-.22-.15-.36-.36-.36h-.07c-3.35.15-5.94,2.84-5.94,6.19s2.77,6.19,6.19,6.19c3.2,0,5.9-2.48,6.15-5.65.04-.04.04-.11.04-.15v-7.03c.8.18,1.64.25,2.51.11.18-.04.29-.18.29-.36v-3.86c0-.11-.07-.22-.18-.29ZM16.87,6.34c-.84.07-1.6,0-2.37-.25-.11-.04-.22,0-.33.04-.11.07-.15.18-.15.29v7.36s0,.07-.04.11c-.18,2.84-2.59,5.1-5.43,5.1-3.02,0-5.46-2.44-5.46-5.46,0-2.84,2.11-5.17,4.92-5.43v3.53c-.84.25-1.46,1.02-1.46,1.89,0,1.09.91,2,2,2,.98,0,1.82-.73,1.97-1.68.04-.04.04-.11.04-.15V1.02h3.02c.07.47.25.87.51,1.24.62.84,1.71,1.27,2.77,1.02,0,0,0,3.06,0,3.06Z"/>
</svg>