<?xml version="1.0" encoding="UTF-8"?>
<svg id="Camada_1" data-name="Camada 1" xmlns="http://www.w3.org/2000/svg" viewBox="0 0 20 20">
  <path d="M12.4,19.18c.17,0,.32.14.32.32s-.14.32-.32.32H2.36c-.6,0-1.15-.25-1.54-.64-.39-.39-.64-.94-.64-1.54V2.37C.18,1.77.43,1.22.82.83l.02-.02c.39-.39.93-.62,1.52-.62h.89c.17,0,.32.14.32.32s-.14.32-.32.32h-.89c-.42,0-.8.17-1.09.45-.29.29-.46.68-.46,1.1v15.27c0,.43.17.81.46,1.09.28.28.67.45,1.09.45h10.04,0ZM10.26,8.1l4-4.87c.06-.08.15-.14.26-.14h1.78c.07,0,.14.02.2.07.13.11.15.31.04.44l-5.09,6.19,4.66,6.6c.1.14.07.34-.08.44-.06.04-.12.06-.18.06h-2.42c-.11,0-.21-.06-.27-.15l-3.43-4.85-4,4.87c-.06.08-.15.14-.26.14h-1.78c-.07,0-.14-.02-.2-.07-.13-.11-.15-.31-.04-.44l5.09-6.19L3.88,3.6c-.1-.14-.07-.34.08-.44.06-.04.12-.06.18-.06h2.42c.11,0,.21.06.27.15l3.43,4.86h0ZM7.6.82c-.17,0-.32-.14-.32-.32s.14-.32.32-.32h10.04c.6,0,1.15.25,1.54.64l.02.02c.39.39.62.93.62,1.52v15.27c0,.6-.25,1.14-.64,1.54-.4.4-.94.64-1.54.64h-.89c-.17,0-.32-.14-.32-.32s.14-.32.32-.32h.89c.43,0,.81-.17,1.09-.45.28-.28.46-.67.46-1.09V2.37c0-.42-.17-.8-.45-1.09-.29-.29-.68-.46-1.1-.46H7.6Z"/>
</svg>