<?xml version="1.0" encoding="UTF-8"?>
<svg id="OBJECTS" xmlns="http://www.w3.org/2000/svg" viewBox="0 0 120.06 101.74">
  <defs>
    <style>
      .cls-1 {
        fill: #a2a2ff;
      }

      .cls-2 {
        fill: #fff;
      }

      .cls-3 {
        fill: #95f9df;
      }
    </style>
  </defs>
  <circle class="cls-3" cx="55.78" cy="47.43" r="38.97"/>
  <g>
    <path class="cls-2" d="M96.47,73.4v-.03l-4.88-24.74s-.01-.04-.02-.05c.55-6.51-3.64-12.68-10.17-14.4-5.86-1.54-11.84.96-14.99,5.78h-5.96v-2.52c0-1.62-1.04-3.01-2.49-3.52v-3.96c0-.69-.56-1.25-1.25-1.25s-1.25.56-1.25,1.25v3.96c-1.45.52-2.49,1.9-2.49,3.52v2.52h-5.96c-2.49-3.85-6.76-6.23-11.49-6.23-7.56,0-13.71,6.15-13.71,13.71,0,.38.02.75.05,1.12,0,.03-.02.05-.03.08l-4.88,24.74v.03c-.08.48-.12.97-.12,1.45,0,4.81,3.91,8.73,8.73,8.73,3.11,0,6-1.67,7.55-4.36l10.61-18.08h25.98l10.61,18.08c1.56,2.69,4.45,4.36,7.56,4.36,4.81,0,8.73-3.91,8.73-8.73,0-.49-.04-.98-.12-1.45h-.01Z"/>
    <path class="cls-1" d="M92.44,74.86s-4.79-20.98-4.89-26.18c-.14-6.88-5.6-12.47-12.51-12.47-4.63,0-8.67,2.51-10.83,6.23h-7.93v-3.77c0-1.38-1.12-2.49-2.5-2.49s-2.5,1.12-2.5,2.49v3.77h-7.93c-2.16-3.73-6.21-6.23-10.84-6.23-6.91,0-11.45,5-12.51,12.47-.07.5-4.9,26.18-4.9,26.18-.07.41-.1.82-.1,1.25,0,4.13,3.36,7.48,7.51,7.48,2.78,0,4.26-1.62,5.56-3.85l11.22-18.61,28.26.03,11.01,18.7c1.3,2.24,3.72,3.74,6.5,3.74,4.15,0,7.51-3.35,7.51-7.48,0-.42-.04-.84-.1-1.25h-.03Z"/>
    <g>
      <path d="M35.52,61.14c-7.56,0-13.71-6.15-13.71-13.71s6.15-13.71,13.71-13.71c5.69,0,10.7,3.42,12.77,8.72.25.64-.07,1.37-.71,1.62s-1.37-.07-1.62-.71c-1.7-4.33-5.8-7.13-10.45-7.13-6.19,0-11.22,5.03-11.22,11.22s5.03,11.22,11.22,11.22,11.22-5.03,11.22-11.22c0-.69.56-1.25,1.25-1.25s1.25.56,1.25,1.25c0,7.56-6.15,13.71-13.71,13.71h0Z"/>
      <path d="M74.41,60.69c-2.7-.71-5.09-2.21-6.9-4.32-.45-.52-.39-1.31.13-1.76.52-.45,1.31-.39,1.76.13,1.48,1.73,3.44,2.95,5.65,3.53,5.98,1.58,12.13-2.01,13.71-7.99s-2.01-12.13-7.99-13.71-12.13,2.01-13.71,7.99c-.55,2.07-.49,4.23.16,6.26.21.66-.15,1.36-.81,1.57-.66.21-1.36-.15-1.57-.81-.79-2.48-.86-5.13-.19-7.66,1.93-7.31,9.44-11.69,16.76-9.76s11.69,9.44,9.76,16.76-9.44,11.69-16.75,9.76h-.01Z"/>
      <path d="M76.65,61.14h-39.89c-.69,0-1.25-.56-1.25-1.25s.56-1.25,1.25-1.25h39.89c.69,0,1.25.56,1.25,1.25s-.56,1.25-1.25,1.25Z"/>
      <path d="M66.68,42.44h-19.94c-.69,0-1.25-.56-1.25-1.25s.56-1.25,1.25-1.25h19.94c.69,0,1.25.56,1.25,1.25s-.56,1.25-1.25,1.25Z"/>
      <path d="M25.55,83.58c-4.81,0-8.73-3.91-8.73-8.73,0-.49.04-.98.12-1.45v-.03l4.88-24.74c.13-.68.79-1.12,1.46-.98.68.13,1.12.79.98,1.47l-4.88,24.72c-.06.33-.08.68-.08,1.02,0,3.44,2.8,6.23,6.23,6.23,2.22,0,4.29-1.19,5.4-3.12l10.98-18.7c.35-.59,1.11-.79,1.71-.44.59.35.79,1.11.44,1.71l-10.97,18.7c-1.55,2.68-4.45,4.36-7.55,4.36v-.02Z"/>
      <path d="M87.86,83.58c-3.11,0-6-1.67-7.56-4.36l-10.97-18.69c-.35-.59-.15-1.36.44-1.71.59-.35,1.36-.15,1.71.44l10.97,18.7c1.12,1.93,3.18,3.12,5.4,3.12,3.44,0,6.23-2.8,6.23-6.23,0-.34-.03-.69-.08-1.02l-4.88-24.72c-.13-.68.31-1.33.98-1.47.68-.13,1.33.31,1.46.98l4.88,24.74v.03c.08.48.12.97.12,1.45,0,4.81-3.91,8.73-8.73,8.73h.03Z"/>
      <path d="M59.2,54.91h-4.99c-.69,0-1.25-.56-1.25-1.25s.56-1.25,1.25-1.25h4.99c.69,0,1.25.56,1.25,1.25s-.56,1.25-1.25,1.25Z"/>
      <path d="M70.85,49.19c-.97-.97-.97-2.55,0-3.53s2.55-.97,3.53,0,.97,2.55,0,3.53-2.55.97-3.53,0ZM72.61,47.43h0Z"/>
      <path d="M76.14,54.48c-.97-.97-.97-2.55,0-3.53s2.55-.97,3.53,0,.97,2.55,0,3.53-2.55.97-3.53,0ZM77.9,52.72h0Z"/>
      <path d="M76.14,43.91c-.97-.97-.97-2.55,0-3.53s2.55-.97,3.53,0,.97,2.55,0,3.53-2.55.97-3.53,0ZM77.9,42.14h0Z"/>
      <path d="M81.43,49.19c-.97-.97-.97-2.55,0-3.53s2.55-.97,3.53,0,.97,2.55,0,3.53-2.55.97-3.53,0ZM83.19,47.43h0Z"/>
      <path d="M59.2,42.44c-.69,0-1.25-.56-1.25-1.25v-3.77c0-.69-.56-1.25-1.25-1.25s-1.25.56-1.25,1.25v3.77c0,.69-.56,1.25-1.25,1.25s-1.25-.56-1.25-1.25v-3.77c0-2.06,1.68-3.74,3.74-3.74s3.74,1.68,3.74,3.74v3.77c0,.69-.56,1.25-1.25,1.25h.02Z"/>
      <path d="M56.71,36.18c-.69,0-1.25-.56-1.25-1.25v-4.99c0-.69.56-1.25,1.25-1.25s1.25.56,1.25,1.25v4.99c0,.69-.56,1.25-1.25,1.25Z"/>
    </g>
    <path d="M34.06,49.48h-3.5c-.39,0-.75-.15-1.03-.43s-.43-.64-.43-1.03c0-.8.65-1.45,1.46-1.45h3.5v-3.5c0-.8.65-1.45,1.46-1.46.39,0,.75.15,1.03.43s.43.64.43,1.03v3.5h3.5c.39,0,.75.15,1.03.43s.43.64.43,1.03c0,.8-.65,1.45-1.46,1.45h-3.5v3.5c0,.8-.65,1.45-1.46,1.46-.39,0-.75-.15-1.03-.43s-.43-.64-.43-1.03v-3.5"/>
  </g>
  <path class="cls-1" d="M114.82,81.58h-1.65v-1.65c0-.53-.43-.96-.96-.96s-.96.43-.96.96v1.65h-1.65c-.53,0-.96.43-.96.96s.43.96.96.96h1.65v1.65c0,.53.43.96.96.96s.96-.43.96-.96v-1.65h1.65c.53,0,.96-.43.96-.96s-.43-.96-.96-.96Z"/>
  <path d="M27.59,23.04h-1.65v-1.65c0-.53-.43-.96-.96-.96s-.96.43-.96.96v1.65h-1.65c-.53,0-.96.43-.96.96s.43.96.96.96h1.65v1.65c0,.53.43.96.96.96s.96-.43.96-.96v-1.65h1.65c.53,0,.96-.43.96-.96s-.43-.96-.96-.96Z"/>
  <path class="cls-1" d="M104.68,69.52h-.98v-.98c0-.53-.43-.96-.96-.96s-.96.43-.96.96v.98h-.98c-.53,0-.96.43-.96.96s.43.96.96.96h.98v.98c0,.53.43.96.96.96s.96-.43.96-.96v-.98h.98c.53,0,.96-.43.96-.96s-.43-.96-.96-.96Z"/>
</svg>