<?xml version="1.0" encoding="UTF-8"?>
<svg id="OBJECTS" xmlns="http://www.w3.org/2000/svg" version="1.1" viewBox="0 0 334.5 101.7">
  <!-- Generator: Adobe Illustrator 29.1.0, SVG Export Plug-In . SVG Version: 2.1.0 Build 142)  -->
  <defs>
    <style>
      .st0 {
        fill: #a2a2ff;
      }

      .st1 {
        fill: #fff;
      }

      .st2 {
        isolation: isolate;
      }

      .st3 {
        fill: #95f9df;
      }
    </style>
  </defs>
  <circle class="st3" cx="55.8" cy="47.4" r="39"/>
  <g>
    <path class="st1" d="M96.5,73.4h0s-4.9-24.8-4.9-24.8c0,0,0,0,0,0,.6-6.5-3.6-12.7-10.2-14.4-5.9-1.5-11.8,1-15,5.8h-6v-2.5c0-1.6-1-3-2.5-3.5v-4c0-.7-.6-1.2-1.2-1.2s-1.2.6-1.2,1.2v4c-1.5.5-2.5,1.9-2.5,3.5v2.5h-6c-2.5-3.8-6.8-6.2-11.5-6.2-7.6,0-13.7,6.2-13.7,13.7s0,.8,0,1.1c0,0,0,0,0,0l-4.9,24.7h0c0,.5-.1,1-.1,1.5,0,4.8,3.9,8.7,8.7,8.7s6-1.7,7.6-4.4l10.6-18.1h26l10.6,18.1c1.6,2.7,4.4,4.4,7.6,4.4,4.8,0,8.7-3.9,8.7-8.7s0-1-.1-1.4h0Z"/>
    <path class="st0" d="M92.4,74.9s-4.8-21-4.9-26.2c-.1-6.9-5.6-12.5-12.5-12.5s-8.7,2.5-10.8,6.2h-7.9v-3.8c0-1.4-1.1-2.5-2.5-2.5s-2.5,1.1-2.5,2.5v3.8h-7.9c-2.2-3.7-6.2-6.2-10.8-6.2-6.9,0-11.5,5-12.5,12.5,0,.5-4.9,26.2-4.9,26.2,0,.4-.1.8-.1,1.2,0,4.1,3.4,7.5,7.5,7.5s4.3-1.6,5.6-3.8l11.2-18.6h28.3s11,18.7,11,18.7c1.3,2.2,3.7,3.7,6.5,3.7,4.2,0,7.5-3.3,7.5-7.5s0-.8,0-1.2h0Z"/>
    <g>
      <path d="M35.5,61.1c-7.6,0-13.7-6.2-13.7-13.7s6.1-13.7,13.7-13.7,10.7,3.4,12.8,8.7c.2.6,0,1.4-.7,1.6s-1.4,0-1.6-.7c-1.7-4.3-5.8-7.1-10.5-7.1s-11.2,5-11.2,11.2,5,11.2,11.2,11.2,11.2-5,11.2-11.2.6-1.2,1.2-1.2,1.2.6,1.2,1.2c0,7.6-6.2,13.7-13.7,13.7h0Z"/>
      <path d="M74.4,60.7c-2.7-.7-5.1-2.2-6.9-4.3-.4-.5-.4-1.3.1-1.8.5-.5,1.3-.4,1.8.1,1.5,1.7,3.4,3,5.7,3.5,6,1.6,12.1-2,13.7-8s-2-12.1-8-13.7-12.1,2-13.7,8c-.6,2.1-.5,4.2.2,6.3.2.7-.2,1.4-.8,1.6-.7.2-1.4-.2-1.6-.8-.8-2.5-.9-5.1-.2-7.7,1.9-7.3,9.4-11.7,16.8-9.8s11.7,9.4,9.8,16.8-9.4,11.7-16.8,9.8h0Z"/>
      <path d="M76.7,61.1h-39.9c-.7,0-1.2-.6-1.2-1.2s.6-1.2,1.2-1.2h39.9c.7,0,1.2.6,1.2,1.2s-.6,1.2-1.2,1.2Z"/>
      <path d="M66.7,42.4h-19.9c-.7,0-1.2-.6-1.2-1.2s.6-1.2,1.2-1.2h19.9c.7,0,1.2.6,1.2,1.2s-.6,1.2-1.2,1.2Z"/>
      <path d="M25.5,83.6c-4.8,0-8.7-3.9-8.7-8.7s0-1,.1-1.4h0s4.9-24.8,4.9-24.8c.1-.7.8-1.1,1.5-1,.7.1,1.1.8,1,1.5l-4.9,24.7c0,.3,0,.7,0,1,0,3.4,2.8,6.2,6.2,6.2s4.3-1.2,5.4-3.1l11-18.7c.3-.6,1.1-.8,1.7-.4.6.3.8,1.1.4,1.7l-11,18.7c-1.5,2.7-4.5,4.4-7.5,4.4h0Z"/>
      <path d="M87.9,83.6c-3.1,0-6-1.7-7.6-4.4l-11-18.7c-.3-.6-.2-1.4.4-1.7.6-.3,1.4-.2,1.7.4l11,18.7c1.1,1.9,3.2,3.1,5.4,3.1,3.4,0,6.2-2.8,6.2-6.2s0-.7,0-1l-4.9-24.7c-.1-.7.3-1.3,1-1.5.7-.1,1.3.3,1.5,1l4.9,24.7h0c0,.5.1,1,.1,1.5,0,4.8-3.9,8.7-8.7,8.7h0Z"/>
      <path d="M59.2,54.9h-5c-.7,0-1.2-.6-1.2-1.2s.6-1.2,1.2-1.2h5c.7,0,1.2.6,1.2,1.2s-.6,1.2-1.2,1.2Z"/>
      <path d="M70.8,49.2c-1-1-1-2.5,0-3.5s2.6-1,3.5,0,1,2.5,0,3.5-2.6,1-3.5,0ZM72.6,47.4h0Z"/>
      <path d="M76.1,54.5c-1-1-1-2.5,0-3.5s2.6-1,3.5,0,1,2.5,0,3.5-2.6,1-3.5,0ZM77.9,52.7h0Z"/>
      <path d="M76.1,43.9c-1-1-1-2.5,0-3.5s2.6-1,3.5,0,1,2.5,0,3.5-2.6,1-3.5,0ZM77.9,42.1h0Z"/>
      <path d="M81.4,49.2c-1-1-1-2.5,0-3.5s2.6-1,3.5,0,1,2.5,0,3.5-2.6,1-3.5,0ZM83.2,47.4h0Z"/>
      <path d="M59.2,42.4c-.7,0-1.2-.6-1.2-1.2v-3.8c0-.7-.6-1.2-1.2-1.2s-1.2.6-1.2,1.2v3.8c0,.7-.6,1.2-1.2,1.2s-1.2-.6-1.2-1.2v-3.8c0-2.1,1.7-3.7,3.7-3.7s3.7,1.7,3.7,3.7v3.8c0,.7-.6,1.2-1.2,1.2h0Z"/>
      <path d="M56.7,36.2c-.7,0-1.2-.6-1.2-1.2v-5c0-.7.6-1.2,1.2-1.2s1.2.6,1.2,1.2v5c0,.7-.6,1.2-1.2,1.2Z"/>
    </g>
    <path d="M34.1,49.5h-3.5c-.4,0-.8-.2-1-.4s-.4-.6-.4-1c0-.8.6-1.5,1.5-1.5h3.5v-3.5c0-.8.7-1.5,1.5-1.5.4,0,.8.2,1,.4s.4.6.4,1v3.5h3.5c.4,0,.8.2,1,.4s.4.6.4,1c0,.8-.7,1.5-1.5,1.5h-3.5v3.5c0,.8-.7,1.5-1.5,1.5-.4,0-.8-.2-1-.4s-.4-.6-.4-1v-3.5"/>
  </g>
  <g class="st2">
    <g class="st2">
      <path d="M116.7,49.3v15.4h-4V30.3h7.2c2.5,0,4.4.1,5.6.4,1.2.3,2.2.7,3.1,1.3,1.1.8,2,1.9,2.6,3.2.6,1.4.9,2.9.9,4.5s-.3,3.2-.9,4.5c-.6,1.4-1.5,2.4-2.6,3.2-.9.6-1.9,1.1-3.1,1.3s-3,.4-5.6.4h-3.2ZM116.7,45.6h2.1c3.5,0,5.9-.4,7.1-1.2s1.8-2.3,1.8-4.3-.6-3.7-1.9-4.6c-1.2-.9-3.6-1.3-7-1.3h-2.1v11.5Z"/>
      <path d="M137.2,64.7V30.3h4.1v30.5h13v3.9h-17.1Z"/>
    </g>
    <g class="st2">
      <path d="M154.6,29l15.6,35.7h-4.4l-4.5-10.5h-13.4l-4.5,10.5h-4.4l15.6-35.7ZM154.6,38l-5.5,12.6h10.9l-5.5-12.6Z"/>
    </g>
    <g class="st2">
      <path d="M171,64.7v-15.7l-11.6-18.6h4.7l9,14.9,8.9-14.9h4.7l-11.6,18.6v15.7h-4.1Z"/>
    </g>
  </g>
  <g class="st2">
    <g class="st2">
      <path class="st0" d="M217.2,65.6h-30.4l17.3-26.9h-13.9v-7.4h28.9l-17.3,26.9h15.3v7.5Z"/>
      <path class="st0" d="M258.1,48.5c0,2.5-.5,4.8-1.4,6.9s-2.2,4.1-4,5.8c-1.8,1.7-3.8,3-6,3.9-2.3.9-4.6,1.4-7,1.4s-4.8-.5-7.1-1.4c-2.2-.9-4.2-2.2-5.9-3.9-1.8-1.7-3.1-3.6-4-5.8s-1.4-4.5-1.4-6.9.5-4.8,1.4-6.9c.9-2.2,2.3-4.1,4-5.8,1.7-1.7,3.7-3,5.9-3.9,2.2-.9,4.6-1.4,7.1-1.4s4.8.5,7.1,1.4c2.3.9,4.3,2.2,6,3.9s3,3.6,4,5.8c.9,2.2,1.4,4.5,1.4,6.9ZM239.8,58.6c2.6,0,4.7-1,6.4-2.9,1.7-1.9,2.5-4.3,2.5-7.2s-.9-5.3-2.6-7.2c-1.7-1.9-3.9-2.9-6.4-2.9s-4.7,1-6.4,2.9-2.5,4.3-2.5,7.2.8,5.4,2.5,7.3c1.7,1.9,3.8,2.8,6.5,2.8Z"/>
      <path class="st0" d="M264,65.6V31.2h9l13,17.7c.2.4.7,1.1,1.2,2.2.6,1.1,1.2,2.4,1.9,3.9-.2-1.4-.3-2.7-.4-3.8,0-1.1-.1-2.1-.1-3v-17h9v34.4h-9l-13-17.7c-.3-.4-.7-1.1-1.3-2.2-.6-1.1-1.2-2.4-1.9-3.8.2,1.4.3,2.7.4,3.8,0,1.1.1,2.1.1,3v17h-9Z"/>
      <path class="st0" d="M305,65.6V31.2h21v7.5h-11.9v6h11.2v7.4h-11.2v5.8h11.9v7.7h-21Z"/>
    </g>
  </g>
  <path class="st0" d="M114.8,81.6h-1.7v-1.7c0-.5-.4-1-1-1s-1,.4-1,1v1.7h-1.7c-.5,0-1,.4-1,1s.4,1,1,1h1.7v1.7c0,.5.4,1,1,1s1-.4,1-1v-1.7h1.7c.5,0,1-.4,1-1s-.4-1-1-1Z"/>
  <path d="M27.6,23h-1.6v-1.6c0-.5-.4-1-1-1s-1,.4-1,1v1.6h-1.6c-.5,0-1,.4-1,1s.4,1,1,1h1.6v1.6c0,.5.4,1,1,1s1-.4,1-1v-1.6h1.6c.5,0,1-.4,1-1s-.4-1-1-1Z"/>
  <path class="st0" d="M104.7,69.5h-1v-1c0-.5-.4-1-1-1s-1,.4-1,1v1h-1c-.5,0-1,.4-1,1s.4,1,1,1h1v1c0,.5.4,1,1,1s1-.4,1-1v-1h1c.5,0,1-.4,1-1s-.4-1-1-1Z"/>
</svg>