<?xml version="1.0" encoding="UTF-8"?>
<svg id="Camada_1" data-name="Camada 1" xmlns="http://www.w3.org/2000/svg" viewBox="0 0 20 20">
  <path d="M19.29,7.81c0-1.16-.44-2.29-1.23-3.19.27-1.03.19-2.11-.24-3.1-.08-.19-.26-.33-.47-.4-.3-.09-1.44-.27-3.76,1.11-1-.24-2.03-.36-3.06-.34-1.03-.02-2.06.1-3.06.34-2.38-1.42-3.61-1.19-3.86-1.12-.21.06-.39.21-.47.4-.43.98-.51,2.06-.25,3.09-.82.9-1.25,2.04-1.23,3.21,0,4.37,2.72,5.69,5.21,6.16-.13.29-.22.59-.26.9,0,.03,0,.07,0,.1v1.21c-2.27.17-2.75-1.05-2.8-1.19-.01-.03-.02-.06-.04-.09-.44-.82-1.21-1.45-2.15-1.76-.39-.12-.82.07-.95.44s.08.75.47.88c.52.17.95.51,1.22.96.3.9,1.53,2.32,4.23,2.16v1.14c0,.38.34.69.75.69s.75-.31.75-.69v-3.69c.06-.4.25-.78.55-1.08.3-.26.32-.7.03-.97-.12-.12-.29-.2-.46-.21-2.62-.28-5.04-1.08-5.04-4.97-.04-.95.36-1.87,1.1-2.54.2-.2.27-.48.17-.74-.25-.68-.27-1.41-.05-2.1.92.19,1.79.57,2.54,1.1.2.12.44.15.66.08.95-.27,1.95-.39,2.94-.37,1-.02,1.99.1,2.94.37.22.07.47.04.66-.08.72-.51,1.55-.88,2.43-1.09.22.69.2,1.43-.06,2.12-.09.23-.03.49.15.67.71.7,1.11,1.62,1.13,2.57,0,3.89-2.55,4.69-5.04,4.97-.41.04-.71.38-.66.76.02.19.13.36.3.48.27.19.58.71.58,1.58v3.13c0,.38.34.69.75.69s.75-.31.75-.69v-3.13c0-.55-.1-1.1-.32-1.61,2.02-.4,5.13-1.62,5.13-6.17Z"/>
</svg>